# xmcd
#
# Track frame offsets:
#	150
#	34575
#	59325
#	74100
#	100050
#	113475
#	131850
#	152850
#	199950
#	232875
#	266550
#	267760
#
# Disc length: 3814 seconds
#
# Revision: 1
# Processed by: cddbd v1.5.2PL0 Copyright (c) Steve Scherf et al.
# Submitted via: audiograbber 1.83.01
#
DISCID=ab0ee40c
DTITLE=Kid Andersen - The Dreamer
DYEAR=2007
DGENRE=Blues
TTITLE0=The Dreamer
TTITLE1=Dig The Pain
TTITLE2=Rocket Fuel
TTITLE3=Jezebel
TTITLE4=Twist Of The Century
TTITLE5=My Baby Lee
TTITLE6=Soul City
TTITLE7=The Nightmare
TTITLE8=Serve Me Right To Suffer
TTITLE9=A Better Day
TTITLE10=Conclusion
TTITLE11=Take It Slow
EXTD=
EXTT0=
EXTT1=
EXTT2=
EXTT3=
EXTT4=
EXTT5=
EXTT6=
EXTT7=
EXTT8=
EXTT9=
EXTT10=
EXTT11=
PLAYORDER=
